<svg width="82" height="5" viewBox="0 0 82 5" fill="none" xmlns="http://www.w3.org/2000/svg">
<g clip-path="url(#clip0_20122_96)">
<path d="M80.2982 2.06159C79.3033 1.84489 78.3171 1.65461 77.3048 1.64404C76.083 1.63347 74.8874 1.85017 73.6787 2.0563C73.1769 2.14087 72.662 2.15672 72.1689 1.84489C70.454 0.756091 68.6955 0.851228 66.9108 1.39563C65.8374 1.72332 64.7945 1.76032 63.7167 1.10493C62.892 0.602814 62.0585 -0.116002 61.0985 0.0108476C59.9335 0.164125 58.7771 0.375541 57.6688 1.00979C56.5604 1.64404 55.3954 1.66518 54.2478 1.24763C51.826 0.359685 49.4129 0.481249 47.0435 1.48548C45.189 2.273 43.4087 2.44742 41.5498 1.49605C39.9047 0.650382 38.1855 0.565816 36.4488 1.01508C35.5455 1.24763 34.6772 1.87131 33.7259 1.6599C32.731 1.43791 31.7405 1.14721 30.7456 0.951651C29.4147 0.692666 28.0708 0.312116 26.7442 0.978078C24.7981 1.95588 22.8563 1.99816 20.8578 1.28463C19.06 0.645097 17.2186 0.692666 15.3859 1.05207C13.8019 1.35863 12.2223 1.37448 10.6296 1.08907C9.53873 0.893511 8.43911 0.803659 7.32641 1.20007C6.13952 1.6229 4.96136 2.10387 3.70465 2.11973C2.70103 2.1303 1.7236 1.85017 0.728706 1.84489C0.388349 1.84489 0.0828999 1.79732 0.0174465 2.51085C-0.0523705 3.26666 0.370895 3.21381 0.593436 3.26666C2.43922 3.69478 4.29373 3.84277 6.13079 3.17681C7.59695 2.64827 9.03692 2.68527 10.538 3.01825C12.0041 3.34594 13.5096 3.49922 15.0106 3.18738C16.1364 2.95482 17.284 2.66941 18.4098 2.7804C19.6884 2.90725 20.9276 3.5415 22.2061 3.8322C23.7639 4.18632 25.2868 4.23389 26.8053 3.5415C27.425 3.26138 28.062 3.07639 28.7166 3.10281C30.1565 3.16624 31.5703 3.55207 32.971 4.00133C33.931 4.30789 34.8823 4.56159 35.8554 4.15461C37.9935 3.26666 40.1098 3.21909 42.2305 4.34489C43.0814 4.79415 43.9672 5.0637 44.8879 4.96856C46.293 4.82586 47.6457 4.24446 49.0246 3.85863C50.3642 3.48336 51.6776 3.17152 53.0652 3.63135C53.9118 3.91148 54.767 4.29732 55.6441 4.31846C57.0797 4.36074 58.415 3.62078 59.7807 3.10281C60.012 3.01296 59.964 2.48442 60.2171 2.54785C61.164 2.7804 62.1851 2.54785 63.036 3.35123C64.0832 4.33431 65.2308 4.13347 66.3304 3.96962C67.2512 3.8322 68.1762 3.33009 69.0839 3.21381C70.022 3.09224 71.0125 3.52565 71.9507 3.99076C72.3958 4.20746 72.8758 4.31317 73.3645 4.31846C74.3288 4.33431 75.2277 3.7582 76.1834 3.71592C76.5237 3.70007 76.8161 3.26666 77.1783 3.3248C78.0597 3.46751 78.9368 3.61021 79.8138 3.78463C80.3986 3.90091 81.184 4.20218 81.5156 3.0341C81.6334 2.61656 81.8473 2.31 81.9956 1.78675C81.4022 2.16201 80.8436 2.1673 80.2938 2.04573L80.2982 2.06159Z" fill="#E6332A"/>
</g>
<defs>
<clipPath id="clip0_20122_96">
<rect width="82" height="5" fill="white"/>
</clipPath>
</defs>
</svg>
