<svg width="88" height="5" viewBox="0 0 88 5" fill="none" xmlns="http://www.w3.org/2000/svg">
<g clip-path="url(#clip0_20122_90)">
<path d="M86.173 2.06159C85.1053 1.84489 84.0469 1.65461 82.9605 1.64404C81.6493 1.63347 80.3662 1.85017 79.0691 2.0563C78.5306 2.14087 77.978 2.15672 77.4488 1.84489C75.6085 0.756091 73.7213 0.851228 71.806 1.39563C70.654 1.72332 69.5348 1.76032 68.3782 1.10493C67.4931 0.602814 66.5987 -0.116002 65.5684 0.0108476C64.3181 0.164125 63.0772 0.375541 61.8877 1.00979C60.6983 1.64404 59.448 1.66518 58.2164 1.24763C55.6174 0.359685 53.0278 0.481249 50.485 1.48548C48.4948 2.273 46.5842 2.44742 44.5893 1.49605C42.8239 0.650382 40.9788 0.565816 39.1151 1.01508C38.1457 1.24763 37.2138 1.87131 36.193 1.6599C35.1253 1.43791 34.0623 1.14721 32.9946 0.951651C31.5663 0.692666 30.124 0.312116 28.7004 0.978078C26.6119 1.95588 24.528 1.99816 22.3833 1.28463C20.4539 0.645097 18.4778 0.692666 16.511 1.05207C14.8111 1.35863 13.1159 1.37448 11.4067 1.08907C10.236 0.893511 9.0559 0.803659 7.86177 1.20007C6.58804 1.6229 5.32367 2.10387 3.97501 2.11973C2.89796 2.1303 1.849 1.85017 0.781312 1.84489C0.41605 1.84489 0.0882511 1.79732 0.0180085 2.51085C-0.056917 3.26666 0.397319 3.21381 0.636144 3.26666C2.61699 3.69478 4.60719 3.84277 6.57867 3.17681C8.15211 2.64827 9.69744 2.68527 11.3083 3.01825C12.8818 3.34594 14.4974 3.49922 16.1083 3.18738C17.3164 2.95482 18.548 2.66941 19.7562 2.7804C21.1283 2.90725 22.4582 3.5415 23.8303 3.8322C25.502 4.18632 27.1364 4.23389 28.766 3.5415C29.4309 3.26138 30.1146 3.07639 30.8171 3.10281C32.3624 3.16624 33.8796 3.55207 35.3828 4.00133C36.4131 4.30789 37.4339 4.56159 38.4782 4.15461C40.7728 3.26666 43.044 3.21909 45.3198 4.34489C46.233 4.79415 47.1836 5.0637 48.1717 4.96856C49.6796 4.82586 51.1312 4.24446 52.611 3.85863C54.0486 3.48336 55.4582 3.17152 56.9473 3.63135C57.8558 3.91148 58.7736 4.29732 59.7149 4.31846C61.2555 4.36074 62.6885 3.62078 64.1542 3.10281C64.4024 3.01296 64.3509 2.48442 64.6225 2.54785C65.6387 2.7804 66.7345 2.54785 67.6476 3.35123C68.7715 4.33431 70.0031 4.13347 71.1832 3.96962C72.1712 3.8322 73.164 3.33009 74.1381 3.21381C75.1449 3.09224 76.2079 3.52565 77.2147 3.99076C77.6923 4.20746 78.2074 4.31317 78.7319 4.31846C79.7668 4.33431 80.7315 3.7582 81.757 3.71592C82.1223 3.70007 82.436 3.26666 82.8247 3.3248C83.7707 3.46751 84.7119 3.61021 85.6532 3.78463C86.2807 3.90091 87.1236 4.20218 87.4795 3.0341C87.6059 2.61656 87.8354 2.31 87.9946 1.78675C87.3577 2.16201 86.7583 2.1673 86.1683 2.04573L86.173 2.06159Z" fill="#E6332A"/>
</g>
<defs>
<clipPath id="clip0_20122_90">
<rect width="88" height="5" fill="white"/>
</clipPath>
</defs>
</svg>
