<svg width="30" height="30" viewBox="0 0 30 30" fill="none" xmlns="http://www.w3.org/2000/svg">
<g clip-path="url(#clip0_20122_107)">
<path d="M23.9844 6.01568V2.86516C23.9812 2.50823 23.8372 2.16699 23.5837 1.91572C23.3302 1.66445 22.9877 1.52348 22.6307 1.52349H2.87708C2.70089 1.52191 2.52611 1.55505 2.36273 1.62102C2.19935 1.68699 2.05056 1.7845 1.92486 1.90797C1.79916 2.03144 1.69901 2.17847 1.63014 2.34065C1.56126 2.50283 1.525 2.67699 1.52344 2.85318V19.049C1.5266 19.4059 1.67061 19.7472 1.92412 19.9984C2.17764 20.2497 2.52014 20.3907 2.87708 20.3907H14.1016" stroke="#56A8DA" stroke-width="2" stroke-linecap="round" stroke-linejoin="round"/>
<path d="M1.52344 7.21387H10.8073" stroke="#56A8DA" stroke-width="2" stroke-linecap="round" stroke-linejoin="round"/>
<path d="M28.2364 27.1469L23.2172 18.7615C23.1323 18.6203 23.0868 18.459 23.0854 18.2943V13.2031C23.0823 12.9658 22.9866 12.7391 22.8188 12.5713C22.651 12.4034 22.4243 12.3078 22.187 12.3047H20.3901C20.1528 12.3078 19.926 12.4034 19.7582 12.5713C19.5904 12.7391 19.4948 12.9658 19.4916 13.2031V18.3422C19.4902 18.5069 19.4447 18.6682 19.3599 18.8094L14.0771 27.1948C14.0021 27.3318 13.9641 27.486 13.9669 27.6421C13.9697 27.7983 14.0132 27.951 14.093 28.0852C14.1728 28.2194 14.2862 28.3306 14.4221 28.4076C14.5579 28.4846 14.7115 28.5249 14.8677 28.5245H27.4458C27.6012 28.5243 27.7539 28.4833 27.8885 28.4055C28.023 28.3277 28.1348 28.2159 28.2125 28.0813C28.3018 27.9427 28.3513 27.7822 28.3555 27.6174C28.3598 27.4526 28.3186 27.2898 28.2364 27.1469Z" stroke="#56A8DA" stroke-width="2" stroke-linecap="round" stroke-linejoin="round"/>
<path d="M25.2548 22.1875H17.2168" stroke="#56A8DA" stroke-width="2" stroke-linecap="round" stroke-linejoin="round"/>
<path d="M26.6797 7.8125V11.4062" stroke="#56A8DA" stroke-width="2" stroke-linecap="round" stroke-linejoin="round"/>
<path d="M24.8828 9.60938H28.4766" stroke="#56A8DA" stroke-width="2" stroke-linecap="round" stroke-linejoin="round"/>
<path d="M14.7012 9.00977V12.6035" stroke="#56A8DA" stroke-width="2" stroke-linecap="round" stroke-linejoin="round"/>
<path d="M12.9043 10.8066H16.498" stroke="#56A8DA" stroke-width="2" stroke-linecap="round" stroke-linejoin="round"/>
</g>
<defs>
<clipPath id="clip0_20122_107">
<rect width="30" height="30" fill="white"/>
</clipPath>
</defs>
</svg>
