<svg width="30" height="30" viewBox="0 0 30 30" fill="none" xmlns="http://www.w3.org/2000/svg">
<g clip-path="url(#clip0_20122_101)">
<path d="M12.3164 15.0107C12.3164 15.7256 12.6004 16.4111 13.1058 16.9166C13.6113 17.4221 14.2969 17.7061 15.0117 17.7061C15.7266 17.7061 16.4121 17.4221 16.9176 16.9166C17.4231 16.4111 17.707 15.7256 17.707 15.0107C17.707 14.2959 17.4231 13.6103 16.9176 13.1049C16.4121 12.5994 15.7266 12.3154 15.0117 12.3154C14.2969 12.3154 13.6113 12.5994 13.1058 13.1049C12.6004 13.6103 12.3164 14.2959 12.3164 15.0107Z" stroke="#F19F21" stroke-width="2" stroke-linecap="round" stroke-linejoin="round"/>
<path d="M2.30459 27.7172C2.88858 28.3012 3.79551 28.5508 4.97357 28.4519C6.15164 28.3529 7.57778 27.9072 9.17057 27.1403C12.3874 25.5915 16.0877 22.8282 19.4575 19.4584C22.8272 16.0886 25.5905 12.3883 27.1393 9.17155C28.6881 5.95476 28.8957 3.485 27.7162 2.30557C26.5368 1.12614 24.067 1.33366 20.8503 2.88249C17.6335 4.43131 13.9332 7.19456 10.5634 10.5644C7.19358 13.9341 4.43033 17.6344 2.88151 20.8512C1.33269 24.068 1.12516 26.5378 2.30459 27.7172Z" stroke="#F19F21" stroke-width="2" stroke-linecap="round" stroke-linejoin="round"/>
<path d="M10.5634 19.4585C12.232 21.127 13.9992 22.6642 15.7643 23.9823C17.5293 25.3004 19.2575 26.3735 20.8503 27.1404C22.4431 27.9073 23.8693 28.353 25.0473 28.4519C26.2254 28.5509 27.1323 28.3013 27.7163 27.7173C28.3003 27.1333 28.55 26.2264 28.451 25.0483C28.352 23.8702 27.9063 22.4441 27.1394 20.8513C26.3725 19.2585 25.2994 17.5303 23.9813 15.7652C22.6633 14.0002 21.1261 12.233 19.4575 10.5644C17.7889 8.89584 16.0217 7.35864 14.2567 6.04058C12.4916 4.72252 10.7634 3.6494 9.17059 2.88249C7.57779 2.11559 6.15165 1.66992 4.97357 1.57093C3.7955 1.47194 2.88858 1.72157 2.30458 2.30556C1.72059 2.88956 1.47096 3.79648 1.56995 4.97455C1.66894 6.15262 2.11461 7.57877 2.88151 9.17157C3.64842 10.7644 4.72154 12.4926 6.0396 14.2576C7.35767 16.0227 8.89486 17.7899 10.5634 19.4585Z" stroke="#F19F21" stroke-width="2" stroke-linecap="round" stroke-linejoin="round"/>
</g>
<defs>
<clipPath id="clip0_20122_101">
<rect width="30" height="30" fill="white"/>
</clipPath>
</defs>
</svg>
