<svg width="68" height="58" viewBox="0 0 68 58" fill="none" xmlns="http://www.w3.org/2000/svg">
<path d="M64.432 28.9057C64.4683 12.9787 51.5382 0.0381122 35.5519 0.00200171C19.5655 -0.0341088 6.57663 12.848 6.54033 28.7749C6.50404 44.7019 19.4341 57.6426 35.4204 57.6787C51.4068 57.7148 64.3957 44.8327 64.432 28.9057Z" fill="white"/>
<path d="M58.2673 46.9443C65.3094 38.1507 66.8184 25.6706 61.0998 15.1545C53.462 1.11889 35.8462 -4.0983 21.7478 3.50197C20.171 4.35434 18.7084 5.33456 17.3563 6.41422H50.6438V14.0926H37.6014C37.6121 21.2276 37.7476 28.8492 38.4219 34.9969C38.4433 35.1994 38.4682 35.4018 38.4896 35.6042L38.5003 35.6895C38.5217 35.8777 38.5431 36.0659 38.5681 36.2506C38.5681 36.2861 38.5753 36.3181 38.5788 36.3536C38.6002 36.5312 38.6252 36.7088 38.6466 36.8828C38.6537 36.9218 38.6573 36.9609 38.6644 37.0035C38.6858 37.174 38.7108 37.3409 38.7358 37.5043C38.7429 37.5469 38.7465 37.586 38.7536 37.6286C38.7786 37.7884 38.8036 37.9518 38.8285 38.1081C38.8357 38.1542 38.8428 38.1968 38.8499 38.243C38.8749 38.3993 38.8999 38.552 38.9249 38.7047C38.932 38.7509 38.9391 38.7935 38.9463 38.8397C38.9712 38.9888 38.9998 39.138 39.0247 39.2872C39.0319 39.3298 39.039 39.3724 39.0461 39.415C39.0747 39.5642 39.1032 39.7098 39.1318 39.8554C39.1389 39.8945 39.146 39.9335 39.1532 39.9762C39.1817 40.1218 39.2138 40.2674 39.2424 40.4094C39.2495 40.4485 39.2566 40.4876 39.2673 40.5231C39.2994 40.6687 39.3315 40.8143 39.3636 40.9564C39.3708 40.9883 39.3779 41.0203 39.3851 41.0523C39.4207 41.205 39.4564 41.3577 39.4956 41.5033C39.4992 41.5211 39.5028 41.5424 39.5099 41.5601C39.6776 42.2349 39.8666 42.8636 40.0664 43.4353C40.0736 43.4567 40.0807 43.4744 40.0878 43.4957C40.1306 43.6129 40.1734 43.7337 40.2163 43.8473C40.2305 43.8828 40.2448 43.9184 40.2591 43.9539C40.2947 44.0498 40.334 44.1457 40.3732 44.238C40.3911 44.2806 40.4089 44.3232 40.4267 44.3623C40.4624 44.4475 40.5016 44.5257 40.5373 44.6074C40.5552 44.65 40.5801 44.6961 40.598 44.7388C40.6336 44.8133 40.6693 44.8844 40.705 44.959C40.7264 45.0016 40.7514 45.0442 40.7728 45.0904C40.8084 45.1578 40.8441 45.2253 40.8798 45.2892C40.9048 45.3319 40.9297 45.3745 40.9547 45.4171C40.9904 45.4775 41.0261 45.5379 41.0617 45.5947C41.0903 45.6373 41.1152 45.6764 41.1402 45.7154C41.1759 45.7723 41.2116 45.8255 41.2508 45.8788C41.2793 45.9179 41.3043 45.9569 41.3329 45.996C41.3685 46.0457 41.4078 46.0954 41.4434 46.1416C41.472 46.1771 41.5005 46.2126 41.5326 46.2482C41.5719 46.2943 41.6075 46.3369 41.6468 46.3796C41.6789 46.4115 41.7074 46.4435 41.7395 46.4755C41.7788 46.5145 41.818 46.5536 41.8573 46.5927C41.8894 46.6211 41.9215 46.653 41.9536 46.6814C41.9928 46.717 42.0356 46.7489 42.0749 46.7809C42.107 46.8057 42.1391 46.8342 42.1712 46.8555C42.214 46.8839 42.2568 46.9158 42.2996 46.9407C42.3353 46.962 42.3674 46.9833 42.3995 47.0046C42.4423 47.033 42.4887 47.0544 42.5315 47.0792C42.5672 47.097 42.5993 47.1147 42.6314 47.1325C42.6778 47.1538 42.7241 47.1716 42.7705 47.1929C42.8062 47.2071 42.8383 47.2213 42.874 47.2319C42.9239 47.2497 42.9739 47.2603 43.0238 47.2746C43.0559 47.2817 43.088 47.2923 43.1237 47.303C43.1808 47.3136 43.2378 47.3243 43.2949 47.3314C43.3235 47.3349 43.352 47.342 43.3805 47.3456C43.4697 47.3562 43.5553 47.3598 43.6445 47.3598C46.9265 47.3598 47.8862 40.0081 47.8862 40.0081H49.2489C49.2489 49.8707 45.4924 54.5871 41.0011 54.5871C40.812 54.5871 40.6301 54.58 40.4481 54.5694C40.3982 54.5694 40.3518 54.5623 40.3019 54.5587C40.152 54.5481 40.0058 54.5303 39.8595 54.509C39.831 54.5055 39.7989 54.5019 39.7703 54.4948C39.6027 54.4699 39.435 54.4344 39.2745 54.3989C39.2352 54.3883 39.196 54.3776 39.1567 54.3705C39.0247 54.3385 38.8999 54.303 38.775 54.2604C38.7394 54.2462 38.7001 54.2355 38.6644 54.2249C38.511 54.1716 38.3612 54.1183 38.2185 54.0509C38.1935 54.0402 38.1686 54.0296 38.1436 54.0189C38.0223 53.9621 37.901 53.9017 37.7833 53.8378C37.7476 53.82 37.7119 53.7987 37.6763 53.7774C37.4016 53.6211 37.1412 53.44 36.895 53.2376C36.8629 53.2127 36.8344 53.1843 36.8023 53.1594C36.6988 53.0706 36.5953 52.9748 36.4955 52.8753C36.4776 52.8576 36.4598 52.8433 36.4455 52.8256C36.3314 52.7084 36.2208 52.5876 36.1102 52.4598C36.0888 52.4314 36.0638 52.403 36.0388 52.3745C35.9496 52.2644 35.864 52.1544 35.7784 52.0407C35.757 52.0123 35.7356 51.9803 35.7142 51.9519C35.6143 51.8099 35.5144 51.6642 35.4217 51.508C35.4074 51.4867 35.3931 51.4654 35.3824 51.4405C35.3004 51.3055 35.2183 51.1635 35.1434 51.0179C35.122 50.9788 35.1042 50.9433 35.0828 50.9042C34.908 50.5668 34.7439 50.2046 34.5905 49.821C34.5726 49.7784 34.5548 49.7358 34.5405 49.6896C34.4727 49.5156 34.405 49.3344 34.3443 49.1498C34.3372 49.1284 34.33 49.1071 34.3229 49.0894C34.2516 48.8798 34.1838 48.6668 34.1196 48.4466C34.1089 48.4039 34.0946 48.3649 34.0839 48.3223C34.0268 48.1305 33.9733 47.9387 33.9234 47.7398C33.9127 47.7007 33.902 47.6617 33.8913 47.6226C33.8342 47.3882 33.7735 47.1467 33.72 46.9016C33.7129 46.8768 33.7093 46.8519 33.7057 46.8271C33.6558 46.6033 33.6094 46.376 33.5631 46.1416C33.5559 46.0919 33.5452 46.0422 33.5345 45.9924C33.4346 45.4739 33.3454 44.927 33.2634 44.3587C33.2563 44.309 33.2491 44.2558 33.242 44.206C33.2027 43.9326 33.1671 43.6555 33.1314 43.3714C33.1314 43.3572 33.1278 43.3466 33.1278 43.3359C33.0922 43.0305 33.0565 42.7179 33.0208 42.4019C33.0208 42.3592 33.0137 42.3202 33.0101 42.2775C32.9816 41.9934 32.953 41.6987 32.9281 41.4039C32.9245 41.3648 32.9209 41.3293 32.9174 41.2902C32.8888 40.9564 32.8603 40.619 32.8353 40.2709C32.8353 40.2603 32.8353 40.2496 32.8353 40.239C32.8139 39.9087 32.7889 39.5748 32.7675 39.2303C32.7675 39.1842 32.7604 39.138 32.7604 39.0918C32.7176 38.378 32.6819 37.6393 32.6498 36.8757C32.6498 36.8366 32.6498 36.794 32.6427 36.7549C32.6106 35.9736 32.5856 35.1709 32.5642 34.3434C32.5642 34.3328 32.5642 34.3221 32.5642 34.3079C32.4251 28.6823 32.5035 21.9273 32.5107 14.0926H20.542C20.542 14.5863 20.542 15.0799 20.5349 15.5736V15.5985C20.5313 16.2484 20.5242 16.8983 20.5171 17.5483C20.5171 17.5483 20.5171 17.5518 20.5171 17.5554C20.3494 30.9659 19.2435 43.5597 15.7617 50.0412C24.6303 58.2843 38.1293 60.3974 49.388 54.3279C49.5343 54.2498 49.6734 54.1645 49.8197 54.0828L67.275 58.0037L58.2637 46.9443H58.2673Z" fill="#3C3C3B"/>
<path d="M15.6046 14.0684C15.5582 14.079 15.5119 14.0826 15.4655 14.0932H13.2323C12.2584 14.0932 11.3666 14.1607 10.5353 14.2815C5.60163 22.6631 5.04155 33.3212 9.96099 42.5054C11.6769 39.9448 13.4927 36.0985 14.5772 28.9883C14.727 28.0081 14.8626 26.964 14.9803 25.8523C14.9803 25.8275 14.9875 25.8062 14.9875 25.7813C15.0124 25.5327 15.0374 25.2805 15.0624 25.0248C15.0695 24.9609 15.0766 24.8934 15.0802 24.8259C15.1052 24.5738 15.1266 24.3216 15.1516 24.0659C15.1516 24.041 15.1516 24.0162 15.1587 23.9949C15.2015 23.5012 15.2407 22.9933 15.2764 22.4748C15.2836 22.3647 15.2907 22.2582 15.2978 22.1481C15.3121 21.935 15.3264 21.7183 15.3371 21.4982C15.3478 21.3348 15.3585 21.175 15.3656 21.008C15.3763 20.8056 15.387 20.5996 15.3977 20.3901C15.4084 20.1912 15.4156 19.9852 15.4263 19.7828C15.4334 19.6016 15.4441 19.417 15.4512 19.2323C15.4655 18.8594 15.4798 18.4829 15.4905 18.0993C15.4976 17.9395 15.5012 17.7797 15.5047 17.6199C15.5119 17.3535 15.519 17.0907 15.5261 16.8208C15.5297 16.6432 15.5333 16.4656 15.5368 16.2881C15.5404 16.0146 15.544 15.7376 15.5511 15.457C15.5511 15.2901 15.5511 15.1267 15.5547 14.9598C15.5547 14.6792 15.5582 14.388 15.5582 14.1003H15.6082C15.6082 14.1003 15.6046 14.0826 15.6011 14.0755L15.6046 14.0684Z" fill="#E6332A"/>
<path d="M10.0459 42.6757C10.0173 42.6189 9.98879 42.5621 9.96025 42.5088C7.69138 45.8934 5.59375 47.0299 5.59375 50.4678C5.59375 52.7976 7.50231 54.5911 9.59281 54.5911C12.2041 54.5911 14.2197 52.9183 15.7644 50.0416C13.5277 47.9639 11.5798 45.5027 10.0459 42.6757Z" fill="#FCEA10"/>
<path d="M17.359 6.41406H15.2613C0.61716 6.41406 0 21.0144 0 21.0144H1.2914C3.35692 17.3883 5.90762 14.9413 10.5345 14.2807C12.279 11.3187 14.5728 8.64442 17.359 6.41406Z" fill="#009FE3"/>
</svg>
