<svg width="113" height="5" viewBox="0 0 113 5" fill="none" xmlns="http://www.w3.org/2000/svg">
<g clip-path="url(#clip0_20122_92)">
<path d="M110.653 2.06159C109.282 1.84489 107.923 1.65461 106.528 1.64404C104.844 1.63347 103.197 1.85017 101.531 2.0563C100.84 2.14087 100.13 2.15672 99.4505 1.84489C97.0873 0.756091 94.664 0.851228 92.2046 1.39563C90.7253 1.72332 89.2882 1.76032 87.8029 1.10493C86.6665 0.602814 85.5179 -0.116002 84.195 0.0108476C82.5895 0.164125 80.996 0.375541 79.4687 1.00979C77.9413 1.64404 76.3358 1.66518 74.7543 1.24763C71.417 0.359685 68.0917 0.481249 64.8265 1.48548C62.2709 2.273 59.8175 2.44742 57.2559 1.49605C54.9889 0.650382 52.6197 0.565816 50.2265 1.01508C48.9817 1.24763 47.7851 1.87131 46.4742 1.6599C45.1032 1.43791 43.7382 1.14721 42.3672 0.951651C40.5332 0.692666 38.6811 0.312116 36.8531 0.978078C34.1712 1.95588 31.4954 1.99816 28.7413 1.28463C26.2639 0.645097 23.7263 0.692666 21.2008 1.05207C19.018 1.35863 16.8412 1.37448 14.6464 1.08907C13.1431 0.893511 11.6278 0.803659 10.0944 1.20007C8.45882 1.6229 6.83525 2.10387 5.10345 2.11973C3.72042 2.1303 2.37346 1.85017 1.00245 1.84489C0.533425 1.84489 0.112501 1.79732 0.0223033 2.51085C-0.0739078 3.26666 0.509372 3.21381 0.816045 3.26666C3.35963 3.69478 5.91524 3.84277 8.44679 3.17681C10.4672 2.64827 12.4516 2.68527 14.5201 3.01825C16.5406 3.34594 18.6151 3.49922 20.6836 3.18738C22.2351 2.95482 23.8165 2.66941 25.3679 2.7804C27.1298 2.90725 28.8375 3.5415 30.5994 3.8322C32.7461 4.18632 34.8447 4.23389 36.9373 3.5415C37.7912 3.26138 38.6691 3.07639 39.5711 3.10281C41.5554 3.16624 43.5037 3.55207 45.434 4.00133C46.7569 4.30789 48.0677 4.56159 49.4087 4.15461C52.3551 3.26666 55.2715 3.21909 58.194 4.34489C59.3665 4.79415 60.5872 5.0637 61.856 4.96856C63.7922 4.82586 65.6563 4.24446 67.5565 3.85863C69.4026 3.48336 71.2125 3.17152 73.1247 3.63135C74.2913 3.91148 75.4699 4.29732 76.6785 4.31846C78.6569 4.36074 80.4969 3.62078 82.379 3.10281C82.6977 3.01296 82.6316 2.48442 82.9804 2.54785C84.2852 2.7804 85.6923 2.54785 86.8649 3.35123C88.3081 4.33431 89.8895 4.13347 91.4048 3.96962C92.6736 3.8322 93.9484 3.33009 95.1992 3.21381C96.492 3.09224 97.857 3.52565 99.1498 3.99076C99.7632 4.20746 100.425 4.31317 101.098 4.31846C102.427 4.33431 103.666 3.7582 104.983 3.71592C105.452 3.70007 105.855 3.26666 106.354 3.3248C107.568 3.46751 108.777 3.61021 109.986 3.78463C110.791 3.90091 111.874 4.20218 112.331 3.0341C112.493 2.61656 112.788 2.31 112.992 1.78675C112.174 2.16201 111.405 2.1673 110.647 2.04573L110.653 2.06159Z" fill="#E6332A"/>
</g>
<defs>
<clipPath id="clip0_20122_92">
<rect width="113" height="5" fill="white"/>
</clipPath>
</defs>
</svg>
