<svg width="30" height="30" viewBox="0 0 30 30" fill="none" xmlns="http://www.w3.org/2000/svg">
<g clip-path="url(#clip0_20122_43)">
<path d="M5.41602 14.9993C5.41602 17.541 6.42569 19.9786 8.22291 21.7758C10.0201 23.573 12.4577 24.5827 14.9993 24.5827C17.541 24.5827 19.9786 23.573 21.7758 21.7758C23.573 19.9786 24.5827 17.541 24.5827 14.9993C24.5827 12.4577 23.573 10.0201 21.7758 8.22291C19.9786 6.42569 17.541 5.41602 14.9993 5.41602C12.4577 5.41602 10.0201 6.42569 8.22291 8.22291C6.42569 10.0201 5.41602 12.4577 5.41602 14.9993Z" stroke="#A6C75C" stroke-width="2" stroke-linecap="round" stroke-linejoin="round"/>
<path d="M15 1.82324V5.41699" stroke="#A6C75C" stroke-width="2" stroke-linecap="round" stroke-linejoin="round"/>
<path d="M12.6035 1.82227H17.3952" stroke="#A6C75C" stroke-width="2" stroke-linecap="round" stroke-linejoin="round"/>
<path d="M24.3181 5.68262L21.7773 8.2234" stroke="#A6C75C" stroke-width="2" stroke-linecap="round" stroke-linejoin="round"/>
<path d="M22.623 3.98828L26.0108 7.37599" stroke="#A6C75C" stroke-width="2" stroke-linecap="round" stroke-linejoin="round"/>
<path d="M28.1777 15H24.584" stroke="#A6C75C" stroke-width="2" stroke-linecap="round" stroke-linejoin="round"/>
<path d="M28.1777 12.6035V17.3952" stroke="#A6C75C" stroke-width="2" stroke-linecap="round" stroke-linejoin="round"/>
<path d="M24.3181 24.3181L21.7773 21.7773" stroke="#A6C75C" stroke-width="2" stroke-linecap="round" stroke-linejoin="round"/>
<path d="M26.0108 22.623L22.623 26.0108" stroke="#A6C75C" stroke-width="2" stroke-linecap="round" stroke-linejoin="round"/>
<path d="M15 28.1768V24.583" stroke="#A6C75C" stroke-width="2" stroke-linecap="round" stroke-linejoin="round"/>
<path d="M17.3952 28.1777H12.6035" stroke="#A6C75C" stroke-width="2" stroke-linecap="round" stroke-linejoin="round"/>
<path d="M5.68164 24.3181L8.22242 21.7773" stroke="#A6C75C" stroke-width="2" stroke-linecap="round" stroke-linejoin="round"/>
<path d="M7.37599 26.0108L3.98828 22.623" stroke="#A6C75C" stroke-width="2" stroke-linecap="round" stroke-linejoin="round"/>
<path d="M1.82227 15H5.41602" stroke="#A6C75C" stroke-width="2" stroke-linecap="round" stroke-linejoin="round"/>
<path d="M1.82227 17.3952V12.6035" stroke="#A6C75C" stroke-width="2" stroke-linecap="round" stroke-linejoin="round"/>
<path d="M5.68164 5.68262L8.22242 8.2234" stroke="#A6C75C" stroke-width="2" stroke-linecap="round" stroke-linejoin="round"/>
<path d="M3.98828 7.37599L7.37599 3.98828" stroke="#A6C75C" stroke-width="2" stroke-linecap="round" stroke-linejoin="round"/>
<path d="M12.7571 8.85156C12.1581 10.5286 13.2854 12.7472 16.5904 11.6463C19.8955 10.5454 21.1425 13.9571 19.4067 15.2999" stroke="#A6C75C" stroke-width="2" stroke-linecap="round" stroke-linejoin="round"/>
<path d="M10.0191 18.3269C8.51088 15.6914 13.148 13.3699 13.6535 17.7279C13.9758 20.5107 16.8879 20.2639 17.2772 18.5377" stroke="#A6C75C" stroke-width="2" stroke-linecap="round" stroke-linejoin="round"/>
</g>
<defs>
<clipPath id="clip0_20122_43">
<rect width="30" height="30" fill="white"/>
</clipPath>
</defs>
</svg>
